<svg width="207" height="73" viewBox="0 0 207 73" fill="none" xmlns="http://www.w3.org/2000/svg">
<path d="M107.358 47.217L100.558 38.581L98.0419 41.267V47.217H91.3779V23.417H98.0419V33.311L107.256 23.417H114.668L104.944 33.957L115.178 47.217H107.358ZM116.3 47.217V28.789H122.76V47.217H116.3ZM119.53 26.749C118.351 26.749 117.399 26.4203 116.674 25.763C115.949 25.1056 115.586 24.2896 115.586 23.315C115.586 22.3403 115.949 21.5243 116.674 20.867C117.399 20.2096 118.351 19.881 119.53 19.881C120.709 19.881 121.661 20.1926 122.386 20.816C123.111 21.4393 123.474 22.2383 123.474 23.213C123.474 24.233 123.111 25.0773 122.386 25.746C121.661 26.4146 120.709 26.749 119.53 26.749ZM138.944 28.483C141.233 28.483 143.075 29.163 144.469 30.523C145.863 31.883 146.56 33.9343 146.56 36.677V47.217H140.1V37.731C140.1 35.215 139.091 33.957 137.074 33.957C135.963 33.957 135.074 34.3196 134.405 35.045C133.736 35.7703 133.402 36.8583 133.402 38.309V47.217H126.942V28.789H133.096V30.795C133.821 30.047 134.683 29.4746 135.68 29.078C136.677 28.6813 137.765 28.483 138.944 28.483ZM164.002 21.989H170.462V47.217H164.308V45.381C163.107 46.809 161.305 47.523 158.902 47.523C157.225 47.523 155.695 47.132 154.312 46.35C152.929 45.568 151.836 44.4516 151.031 43.001C150.226 41.5503 149.824 39.873 149.824 37.969C149.824 36.065 150.226 34.3933 151.031 32.954C151.836 31.5146 152.929 30.4096 154.312 29.639C155.695 28.8683 157.225 28.483 158.902 28.483C161.101 28.483 162.801 29.1176 164.002 30.387V21.989ZM160.262 42.389C161.373 42.389 162.291 41.998 163.016 41.216C163.741 40.434 164.104 39.3516 164.104 37.969C164.104 36.609 163.747 35.5436 163.033 34.773C162.319 34.0023 161.395 33.617 160.262 33.617C159.129 33.617 158.199 34.0023 157.474 34.773C156.749 35.5436 156.386 36.609 156.386 37.969C156.386 39.3516 156.749 40.434 157.474 41.216C158.199 41.998 159.129 42.389 160.262 42.389ZM181.784 47.523C179.517 47.523 177.755 46.9393 176.497 45.772C175.239 44.6046 174.61 42.933 174.61 40.757V21.989H181.07V40.417C181.07 41.097 181.246 41.6183 181.597 41.981C181.948 42.3436 182.441 42.525 183.076 42.525C183.597 42.525 184.085 42.4116 184.538 42.185L184.81 47.047C183.835 47.3643 182.827 47.523 181.784 47.523ZM200.042 28.789H206.502V43.851C206.502 47.2736 205.59 49.8406 203.765 51.552C201.94 53.2633 199.317 54.119 195.894 54.119C194.103 54.119 192.432 53.915 190.879 53.507C189.326 53.099 188.006 52.4983 186.918 51.705L189.264 47.183C189.989 47.795 190.902 48.2766 192.001 48.628C193.1 48.9793 194.194 49.155 195.282 49.155C196.914 49.155 198.115 48.781 198.886 48.033C199.657 47.285 200.042 46.1743 200.042 44.701V44.293C198.659 45.6076 196.937 46.265 194.874 46.265C192.494 46.265 190.596 45.5623 189.179 44.157C187.762 42.7516 187.054 40.6436 187.054 37.833V28.789H193.514V36.779C193.514 38.1843 193.775 39.2043 194.296 39.839C194.817 40.4736 195.577 40.791 196.574 40.791C197.594 40.791 198.427 40.4283 199.073 39.703C199.719 38.9776 200.042 37.8896 200.042 36.439V28.789Z" fill="#3E3884"/>
<path d="M37.578 73C15.378 73 0.498047 58.37 0.498047 36.55C0.498047 16 17.928 0 40.168 0C60.368 0 76.168 15 76.168 34.22C76.168 53.44 61.748 73 37.578 73ZM40.168 4.66C20.568 4.66 5.16805 18.66 5.16805 36.52C5.16805 55.82 17.8781 68.29 37.5381 68.29C58.7681 68.29 71.448 50.94 71.448 34.17C71.488 17.65 57.728 4.69 40.168 4.69V4.66ZM36.548 64.19C21.298 64.19 9.78805 52.72 9.78805 37.52C9.78805 23.74 20.418 9.11 40.128 9.11C57.788 9.14 67.3781 21.93 67.3781 34C67.2857 42.0921 63.9885 49.8174 58.2092 55.4823C52.43 61.1472 44.6404 64.2894 36.548 64.22V64.19ZM40.128 13.81C23.298 13.81 14.498 25.74 14.498 37.52C14.498 48.17 22.228 59.52 36.548 59.52C43.3851 59.5787 49.967 56.9264 54.853 52.1435C59.7389 47.3606 62.531 40.8368 62.618 34C62.618 24.22 54.738 13.84 40.128 13.84V13.81Z" fill="#B8A8ED"/>
<path d="M40.2079 17.5601C31.5379 17.5601 19.3779 23.9001 19.3779 38.0001C19.3779 44.8101 25.0379 54.3901 37.6279 54.3901C54.0379 54.3901 57.6279 39.4901 57.6279 33.7401C57.5779 24.6701 49.9479 17.5601 40.2079 17.5601ZM37.6279 43.0001C27.1479 34.9401 30.4779 29.7001 34.3779 30.0001C35.0487 30.0776 35.6956 30.2959 36.2763 30.6405C36.857 30.9851 37.3585 31.4484 37.7479 32.0001C38.1579 32.5401 38.4179 32.6801 38.7479 32.6801C39.0779 32.6801 39.3979 32.4601 39.8179 31.9601C41.2079 30.3001 42.1479 29.6301 43.5379 29.6301C43.945 29.6336 44.3469 29.722 44.7179 29.8895C45.0889 30.0569 45.421 30.2999 45.6929 30.6029C45.9648 30.9058 46.1706 31.2621 46.2971 31.649C46.4237 32.0359 46.4682 32.445 46.4279 32.8501C46.4279 35.3201 44.6679 39.0001 40.1479 42.8501C39.8032 43.1495 39.3692 43.3265 38.9134 43.3537C38.4577 43.3808 38.0057 43.2565 37.6279 43.0001V43.0001Z" fill="#3E3884"/>
</svg>
